<mxfile host="app.diagrams.net" modified="2023-09-24T18:06:33.721Z" agent="Mozilla/5.0 (Macintosh; Intel Mac OS X 10_15_7) AppleWebKit/605.1.15 (KHTML, like Gecko) Version/16.6 Safari/605.1.15" etag="jApw96ZGpbwv852YwNbe" version="21.7.5" type="device">
  <diagram name="Страница — 1" id="y-v5PsPKPSN_T8NJfxyy">
    <mxGraphModel dx="2514" dy="907" grid="1" gridSize="10" guides="1" tooltips="1" connect="1" arrows="1" fold="1" page="1" pageScale="1" pageWidth="827" pageHeight="1169" math="0" shadow="0">
      <root>
        <mxCell id="0" />
        <mxCell id="1" parent="0" />
        <mxCell id="eUXOg0ovLD5lxjKrLg9W-1" value="Да" style="swimlane;horizontal=0;whiteSpace=wrap;html=1;" vertex="1" parent="1">
          <mxGeometry x="-110" y="150" width="1280" height="550" as="geometry" />
        </mxCell>
        <mxCell id="eUXOg0ovLD5lxjKrLg9W-9" value="" style="edgeStyle=orthogonalEdgeStyle;rounded=0;orthogonalLoop=1;jettySize=auto;html=1;" edge="1" parent="eUXOg0ovLD5lxjKrLg9W-1" source="eUXOg0ovLD5lxjKrLg9W-3" target="eUXOg0ovLD5lxjKrLg9W-6">
          <mxGeometry relative="1" as="geometry" />
        </mxCell>
        <mxCell id="eUXOg0ovLD5lxjKrLg9W-3" value="" style="points=[[0.145,0.145,0],[0.5,0,0],[0.855,0.145,0],[1,0.5,0],[0.855,0.855,0],[0.5,1,0],[0.145,0.855,0],[0,0.5,0]];shape=mxgraph.bpmn.event;html=1;verticalLabelPosition=bottom;labelBackgroundColor=#ffffff;verticalAlign=top;align=center;perimeter=ellipsePerimeter;outlineConnect=0;aspect=fixed;outline=standard;symbol=general;" vertex="1" parent="eUXOg0ovLD5lxjKrLg9W-1">
          <mxGeometry x="60" y="50" width="50" height="50" as="geometry" />
        </mxCell>
        <mxCell id="eUXOg0ovLD5lxjKrLg9W-10" value="" style="edgeStyle=orthogonalEdgeStyle;rounded=0;orthogonalLoop=1;jettySize=auto;html=1;" edge="1" parent="eUXOg0ovLD5lxjKrLg9W-1" source="eUXOg0ovLD5lxjKrLg9W-6" target="eUXOg0ovLD5lxjKrLg9W-7">
          <mxGeometry relative="1" as="geometry" />
        </mxCell>
        <mxCell id="eUXOg0ovLD5lxjKrLg9W-6" value="Зарегистрироваться" style="rounded=1;whiteSpace=wrap;html=1;" vertex="1" parent="eUXOg0ovLD5lxjKrLg9W-1">
          <mxGeometry x="140" y="45" width="120" height="60" as="geometry" />
        </mxCell>
        <mxCell id="eUXOg0ovLD5lxjKrLg9W-7" value="Авторизоваться" style="rounded=1;whiteSpace=wrap;html=1;" vertex="1" parent="eUXOg0ovLD5lxjKrLg9W-1">
          <mxGeometry x="290" y="45" width="120" height="60" as="geometry" />
        </mxCell>
        <mxCell id="eUXOg0ovLD5lxjKrLg9W-8" value="Начать" style="text;html=1;align=center;verticalAlign=middle;resizable=0;points=[];autosize=1;strokeColor=none;fillColor=none;" vertex="1" parent="eUXOg0ovLD5lxjKrLg9W-1">
          <mxGeometry x="55" y="105" width="60" height="30" as="geometry" />
        </mxCell>
        <mxCell id="eUXOg0ovLD5lxjKrLg9W-24" value="" style="edgeStyle=orthogonalEdgeStyle;rounded=0;orthogonalLoop=1;jettySize=auto;html=1;" edge="1" parent="eUXOg0ovLD5lxjKrLg9W-1" source="eUXOg0ovLD5lxjKrLg9W-18" target="eUXOg0ovLD5lxjKrLg9W-23">
          <mxGeometry relative="1" as="geometry" />
        </mxCell>
        <mxCell id="eUXOg0ovLD5lxjKrLg9W-27" style="edgeStyle=orthogonalEdgeStyle;rounded=0;orthogonalLoop=1;jettySize=auto;html=1;entryX=0.5;entryY=1;entryDx=0;entryDy=0;exitX=0.5;exitY=1;exitDx=0;exitDy=0;exitPerimeter=0;" edge="1" parent="eUXOg0ovLD5lxjKrLg9W-1" source="eUXOg0ovLD5lxjKrLg9W-18" target="eUXOg0ovLD5lxjKrLg9W-7">
          <mxGeometry relative="1" as="geometry">
            <mxPoint x="470" y="110" as="sourcePoint" />
          </mxGeometry>
        </mxCell>
        <mxCell id="eUXOg0ovLD5lxjKrLg9W-18" value="" style="points=[[0.25,0.25,0],[0.5,0,0],[0.75,0.25,0],[1,0.5,0],[0.75,0.75,0],[0.5,1,0],[0.25,0.75,0],[0,0.5,0]];shape=mxgraph.bpmn.gateway2;html=1;verticalLabelPosition=bottom;labelBackgroundColor=#ffffff;verticalAlign=top;align=center;perimeter=rhombusPerimeter;outlineConnect=0;outline=none;symbol=none;gwType=exclusive;" vertex="1" parent="eUXOg0ovLD5lxjKrLg9W-1">
          <mxGeometry x="454" y="50" width="50" height="50" as="geometry" />
        </mxCell>
        <mxCell id="eUXOg0ovLD5lxjKrLg9W-48" style="edgeStyle=orthogonalEdgeStyle;rounded=0;orthogonalLoop=1;jettySize=auto;html=1;" edge="1" parent="eUXOg0ovLD5lxjKrLg9W-1" source="eUXOg0ovLD5lxjKrLg9W-23" target="eUXOg0ovLD5lxjKrLg9W-42">
          <mxGeometry relative="1" as="geometry" />
        </mxCell>
        <mxCell id="eUXOg0ovLD5lxjKrLg9W-23" value="Выбор действия" style="points=[[0.145,0.145,0],[0.5,0,0],[0.855,0.145,0],[1,0.5,0],[0.855,0.855,0],[0.5,1,0],[0.145,0.855,0],[0,0.5,0]];shape=mxgraph.bpmn.event;html=1;verticalLabelPosition=bottom;labelBackgroundColor=#ffffff;verticalAlign=top;align=center;perimeter=ellipsePerimeter;outlineConnect=0;aspect=fixed;outline=standard;symbol=general;" vertex="1" parent="eUXOg0ovLD5lxjKrLg9W-1">
          <mxGeometry x="580" y="50" width="50" height="50" as="geometry" />
        </mxCell>
        <mxCell id="eUXOg0ovLD5lxjKrLg9W-26" value="" style="edgeStyle=orthogonalEdgeStyle;rounded=0;orthogonalLoop=1;jettySize=auto;html=1;entryX=0;entryY=0.5;entryDx=0;entryDy=0;entryPerimeter=0;" edge="1" parent="eUXOg0ovLD5lxjKrLg9W-1" source="eUXOg0ovLD5lxjKrLg9W-7" target="eUXOg0ovLD5lxjKrLg9W-18">
          <mxGeometry relative="1" as="geometry" />
        </mxCell>
        <mxCell id="eUXOg0ovLD5lxjKrLg9W-19" value="Пройдена?" style="text;html=1;align=center;verticalAlign=middle;resizable=0;points=[];autosize=1;strokeColor=none;fillColor=none;" vertex="1" parent="eUXOg0ovLD5lxjKrLg9W-1">
          <mxGeometry x="480" y="20" width="90" height="30" as="geometry" />
        </mxCell>
        <mxCell id="eUXOg0ovLD5lxjKrLg9W-31" value="Выход" style="points=[[0.145,0.145,0],[0.5,0,0],[0.855,0.145,0],[1,0.5,0],[0.855,0.855,0],[0.5,1,0],[0.145,0.855,0],[0,0.5,0]];shape=mxgraph.bpmn.event;html=1;verticalLabelPosition=bottom;labelBackgroundColor=#ffffff;verticalAlign=top;align=center;perimeter=ellipsePerimeter;outlineConnect=0;aspect=fixed;outline=standard;symbol=general;" vertex="1" parent="eUXOg0ovLD5lxjKrLg9W-1">
          <mxGeometry x="60" y="210" width="50" height="50" as="geometry" />
        </mxCell>
        <mxCell id="eUXOg0ovLD5lxjKrLg9W-33" value="" style="endArrow=classic;html=1;rounded=0;entryX=1;entryY=0.5;entryDx=0;entryDy=0;entryPerimeter=0;exitX=0.5;exitY=1;exitDx=0;exitDy=0;" edge="1" parent="eUXOg0ovLD5lxjKrLg9W-1" source="eUXOg0ovLD5lxjKrLg9W-6" target="eUXOg0ovLD5lxjKrLg9W-31">
          <mxGeometry width="50" height="50" relative="1" as="geometry">
            <mxPoint x="470" y="200" as="sourcePoint" />
            <mxPoint x="520" y="150" as="targetPoint" />
            <Array as="points">
              <mxPoint x="200" y="235" />
            </Array>
          </mxGeometry>
        </mxCell>
        <mxCell id="eUXOg0ovLD5lxjKrLg9W-35" value="" style="endArrow=classic;html=1;rounded=0;entryX=1;entryY=0.5;entryDx=0;entryDy=0;entryPerimeter=0;exitX=0.25;exitY=1;exitDx=0;exitDy=0;" edge="1" parent="eUXOg0ovLD5lxjKrLg9W-1" source="eUXOg0ovLD5lxjKrLg9W-7" target="eUXOg0ovLD5lxjKrLg9W-31">
          <mxGeometry width="50" height="50" relative="1" as="geometry">
            <mxPoint x="470" y="200" as="sourcePoint" />
            <mxPoint x="520" y="150" as="targetPoint" />
            <Array as="points">
              <mxPoint x="320" y="235" />
            </Array>
          </mxGeometry>
        </mxCell>
        <mxCell id="eUXOg0ovLD5lxjKrLg9W-55" style="edgeStyle=orthogonalEdgeStyle;rounded=0;orthogonalLoop=1;jettySize=auto;html=1;" edge="1" parent="eUXOg0ovLD5lxjKrLg9W-1" source="eUXOg0ovLD5lxjKrLg9W-37" target="eUXOg0ovLD5lxjKrLg9W-38">
          <mxGeometry relative="1" as="geometry" />
        </mxCell>
        <mxCell id="eUXOg0ovLD5lxjKrLg9W-56" style="edgeStyle=orthogonalEdgeStyle;rounded=0;orthogonalLoop=1;jettySize=auto;html=1;entryX=0.65;entryY=0;entryDx=0;entryDy=0;entryPerimeter=0;" edge="1" parent="eUXOg0ovLD5lxjKrLg9W-1" source="eUXOg0ovLD5lxjKrLg9W-37" target="eUXOg0ovLD5lxjKrLg9W-39">
          <mxGeometry relative="1" as="geometry" />
        </mxCell>
        <mxCell id="eUXOg0ovLD5lxjKrLg9W-78" style="edgeStyle=orthogonalEdgeStyle;rounded=0;orthogonalLoop=1;jettySize=auto;html=1;" edge="1" parent="eUXOg0ovLD5lxjKrLg9W-1" target="eUXOg0ovLD5lxjKrLg9W-74">
          <mxGeometry relative="1" as="geometry">
            <mxPoint x="390" y="380" as="sourcePoint" />
          </mxGeometry>
        </mxCell>
        <mxCell id="eUXOg0ovLD5lxjKrLg9W-37" value="Действия с друзьями" style="rounded=1;whiteSpace=wrap;html=1;" vertex="1" parent="eUXOg0ovLD5lxjKrLg9W-1">
          <mxGeometry x="334" y="300" width="120" height="60" as="geometry" />
        </mxCell>
        <mxCell id="eUXOg0ovLD5lxjKrLg9W-79" value="" style="edgeStyle=orthogonalEdgeStyle;rounded=0;orthogonalLoop=1;jettySize=auto;html=1;" edge="1" parent="eUXOg0ovLD5lxjKrLg9W-1" source="eUXOg0ovLD5lxjKrLg9W-38" target="eUXOg0ovLD5lxjKrLg9W-39">
          <mxGeometry relative="1" as="geometry" />
        </mxCell>
        <mxCell id="eUXOg0ovLD5lxjKrLg9W-38" value="Добавить в друзья" style="rounded=1;whiteSpace=wrap;html=1;" vertex="1" parent="eUXOg0ovLD5lxjKrLg9W-1">
          <mxGeometry x="240" y="400" width="120" height="60" as="geometry" />
        </mxCell>
        <mxCell id="eUXOg0ovLD5lxjKrLg9W-39" value="Удалить из друзей" style="rounded=1;whiteSpace=wrap;html=1;" vertex="1" parent="eUXOg0ovLD5lxjKrLg9W-1">
          <mxGeometry x="404" y="400" width="120" height="60" as="geometry" />
        </mxCell>
        <mxCell id="eUXOg0ovLD5lxjKrLg9W-49" style="edgeStyle=orthogonalEdgeStyle;rounded=0;orthogonalLoop=1;jettySize=auto;html=1;entryX=0.5;entryY=0;entryDx=0;entryDy=0;" edge="1" parent="eUXOg0ovLD5lxjKrLg9W-1" source="eUXOg0ovLD5lxjKrLg9W-42" target="eUXOg0ovLD5lxjKrLg9W-43">
          <mxGeometry relative="1" as="geometry">
            <Array as="points">
              <mxPoint x="750" y="260" />
              <mxPoint x="640" y="260" />
            </Array>
          </mxGeometry>
        </mxCell>
        <mxCell id="eUXOg0ovLD5lxjKrLg9W-50" style="edgeStyle=orthogonalEdgeStyle;rounded=0;orthogonalLoop=1;jettySize=auto;html=1;entryX=0.5;entryY=0;entryDx=0;entryDy=0;" edge="1" parent="eUXOg0ovLD5lxjKrLg9W-1" source="eUXOg0ovLD5lxjKrLg9W-42" target="eUXOg0ovLD5lxjKrLg9W-44">
          <mxGeometry relative="1" as="geometry" />
        </mxCell>
        <mxCell id="eUXOg0ovLD5lxjKrLg9W-51" style="edgeStyle=orthogonalEdgeStyle;rounded=0;orthogonalLoop=1;jettySize=auto;html=1;entryX=0.5;entryY=0;entryDx=0;entryDy=0;" edge="1" parent="eUXOg0ovLD5lxjKrLg9W-1" target="eUXOg0ovLD5lxjKrLg9W-45">
          <mxGeometry relative="1" as="geometry">
            <mxPoint x="750" y="250" as="sourcePoint" />
          </mxGeometry>
        </mxCell>
        <mxCell id="eUXOg0ovLD5lxjKrLg9W-42" value="Действия с сообществами" style="rounded=1;whiteSpace=wrap;html=1;" vertex="1" parent="eUXOg0ovLD5lxjKrLg9W-1">
          <mxGeometry x="690" y="180" width="120" height="60" as="geometry" />
        </mxCell>
        <mxCell id="eUXOg0ovLD5lxjKrLg9W-43" value="Создать сообщество" style="rounded=1;whiteSpace=wrap;html=1;" vertex="1" parent="eUXOg0ovLD5lxjKrLg9W-1">
          <mxGeometry x="580" y="270" width="120" height="60" as="geometry" />
        </mxCell>
        <mxCell id="eUXOg0ovLD5lxjKrLg9W-44" value="Удалить сообщество&amp;nbsp;" style="rounded=1;whiteSpace=wrap;html=1;" vertex="1" parent="eUXOg0ovLD5lxjKrLg9W-1">
          <mxGeometry x="710" y="270" width="120" height="60" as="geometry" />
        </mxCell>
        <mxCell id="eUXOg0ovLD5lxjKrLg9W-67" value="" style="edgeStyle=orthogonalEdgeStyle;rounded=0;orthogonalLoop=1;jettySize=auto;html=1;" edge="1" parent="eUXOg0ovLD5lxjKrLg9W-1" source="eUXOg0ovLD5lxjKrLg9W-45" target="eUXOg0ovLD5lxjKrLg9W-46">
          <mxGeometry relative="1" as="geometry" />
        </mxCell>
        <mxCell id="eUXOg0ovLD5lxjKrLg9W-68" style="edgeStyle=orthogonalEdgeStyle;rounded=0;orthogonalLoop=1;jettySize=auto;html=1;" edge="1" parent="eUXOg0ovLD5lxjKrLg9W-1" target="eUXOg0ovLD5lxjKrLg9W-47">
          <mxGeometry relative="1" as="geometry">
            <mxPoint x="900" y="340" as="sourcePoint" />
          </mxGeometry>
        </mxCell>
        <mxCell id="eUXOg0ovLD5lxjKrLg9W-45" value="Написать пост" style="rounded=1;whiteSpace=wrap;html=1;" vertex="1" parent="eUXOg0ovLD5lxjKrLg9W-1">
          <mxGeometry x="840" y="270" width="120" height="60" as="geometry" />
        </mxCell>
        <mxCell id="eUXOg0ovLD5lxjKrLg9W-46" value="Лайкнуть пост" style="rounded=1;whiteSpace=wrap;html=1;" vertex="1" parent="eUXOg0ovLD5lxjKrLg9W-1">
          <mxGeometry x="910" y="360" width="120" height="60" as="geometry" />
        </mxCell>
        <mxCell id="eUXOg0ovLD5lxjKrLg9W-47" value="Оставить комментарий" style="rounded=1;whiteSpace=wrap;html=1;" vertex="1" parent="eUXOg0ovLD5lxjKrLg9W-1">
          <mxGeometry x="1100" y="360" width="120" height="60" as="geometry" />
        </mxCell>
        <mxCell id="eUXOg0ovLD5lxjKrLg9W-74" value="Чаты" style="rounded=1;whiteSpace=wrap;html=1;" vertex="1" parent="eUXOg0ovLD5lxjKrLg9W-1">
          <mxGeometry x="100" y="400" width="120" height="60" as="geometry" />
        </mxCell>
        <mxCell id="eUXOg0ovLD5lxjKrLg9W-12" value="" style="shape=datastore;whiteSpace=wrap;html=1;" vertex="1" parent="1">
          <mxGeometry x="359" y="60" width="60" height="60" as="geometry" />
        </mxCell>
        <mxCell id="eUXOg0ovLD5lxjKrLg9W-21" value="" style="edgeStyle=orthogonalEdgeStyle;rounded=0;orthogonalLoop=1;jettySize=auto;html=1;" edge="1" parent="1" source="eUXOg0ovLD5lxjKrLg9W-18" target="eUXOg0ovLD5lxjKrLg9W-12">
          <mxGeometry relative="1" as="geometry" />
        </mxCell>
        <mxCell id="eUXOg0ovLD5lxjKrLg9W-22" value="Пользователи" style="text;html=1;align=center;verticalAlign=middle;resizable=0;points=[];autosize=1;strokeColor=none;fillColor=none;" vertex="1" parent="1">
          <mxGeometry x="350" y="120" width="100" height="30" as="geometry" />
        </mxCell>
        <mxCell id="eUXOg0ovLD5lxjKrLg9W-29" value="Нет" style="text;html=1;align=center;verticalAlign=middle;resizable=0;points=[];autosize=1;strokeColor=none;fillColor=none;" vertex="1" parent="1">
          <mxGeometry x="361" y="288" width="40" height="30" as="geometry" />
        </mxCell>
        <mxCell id="eUXOg0ovLD5lxjKrLg9W-30" value="Да" style="text;html=1;align=center;verticalAlign=middle;resizable=0;points=[];autosize=1;strokeColor=none;fillColor=none;" vertex="1" parent="1">
          <mxGeometry x="401" y="228" width="40" height="30" as="geometry" />
        </mxCell>
        <mxCell id="eUXOg0ovLD5lxjKrLg9W-36" value="" style="endArrow=classic;html=1;rounded=0;entryX=1;entryY=0.5;entryDx=0;entryDy=0;entryPerimeter=0;" edge="1" parent="1" target="eUXOg0ovLD5lxjKrLg9W-31">
          <mxGeometry width="50" height="50" relative="1" as="geometry">
            <mxPoint x="450" y="230" as="sourcePoint" />
            <mxPoint x="430" y="310" as="targetPoint" />
            <Array as="points">
              <mxPoint x="450" y="385" />
            </Array>
          </mxGeometry>
        </mxCell>
        <mxCell id="eUXOg0ovLD5lxjKrLg9W-40" value="" style="shape=datastore;whiteSpace=wrap;html=1;" vertex="1" parent="1">
          <mxGeometry x="220" y="730" width="60" height="60" as="geometry" />
        </mxCell>
        <mxCell id="eUXOg0ovLD5lxjKrLg9W-41" value="Друзья" style="text;html=1;align=center;verticalAlign=middle;resizable=0;points=[];autosize=1;strokeColor=none;fillColor=none;" vertex="1" parent="1">
          <mxGeometry x="217" y="794" width="60" height="30" as="geometry" />
        </mxCell>
        <mxCell id="eUXOg0ovLD5lxjKrLg9W-53" value="" style="endArrow=classic;html=1;rounded=0;entryX=0.5;entryY=0;entryDx=0;entryDy=0;" edge="1" parent="1" target="eUXOg0ovLD5lxjKrLg9W-37">
          <mxGeometry width="50" height="50" relative="1" as="geometry">
            <mxPoint x="540" y="230" as="sourcePoint" />
            <mxPoint x="520" y="510" as="targetPoint" />
            <Array as="points">
              <mxPoint x="540" y="400" />
              <mxPoint x="284" y="400" />
            </Array>
          </mxGeometry>
        </mxCell>
        <mxCell id="eUXOg0ovLD5lxjKrLg9W-57" style="edgeStyle=orthogonalEdgeStyle;rounded=0;orthogonalLoop=1;jettySize=auto;html=1;" edge="1" parent="1" source="eUXOg0ovLD5lxjKrLg9W-38">
          <mxGeometry relative="1" as="geometry">
            <mxPoint x="250" y="730" as="targetPoint" />
          </mxGeometry>
        </mxCell>
        <mxCell id="eUXOg0ovLD5lxjKrLg9W-58" style="edgeStyle=orthogonalEdgeStyle;rounded=0;orthogonalLoop=1;jettySize=auto;html=1;entryX=0.5;entryY=0;entryDx=0;entryDy=0;" edge="1" parent="1" source="eUXOg0ovLD5lxjKrLg9W-39" target="eUXOg0ovLD5lxjKrLg9W-40">
          <mxGeometry relative="1" as="geometry">
            <Array as="points">
              <mxPoint x="354" y="670" />
              <mxPoint x="250" y="670" />
            </Array>
          </mxGeometry>
        </mxCell>
        <mxCell id="eUXOg0ovLD5lxjKrLg9W-59" value="" style="shape=datastore;whiteSpace=wrap;html=1;" vertex="1" parent="1">
          <mxGeometry x="570" y="730" width="60" height="60" as="geometry" />
        </mxCell>
        <mxCell id="eUXOg0ovLD5lxjKrLg9W-60" value="Сообщества" style="text;html=1;align=center;verticalAlign=middle;resizable=0;points=[];autosize=1;strokeColor=none;fillColor=none;" vertex="1" parent="1">
          <mxGeometry x="555" y="790" width="90" height="30" as="geometry" />
        </mxCell>
        <mxCell id="eUXOg0ovLD5lxjKrLg9W-61" value="" style="shape=datastore;whiteSpace=wrap;html=1;" vertex="1" parent="1">
          <mxGeometry x="730" y="740" width="60" height="60" as="geometry" />
        </mxCell>
        <mxCell id="eUXOg0ovLD5lxjKrLg9W-62" value="Посты" style="text;html=1;align=center;verticalAlign=middle;resizable=0;points=[];autosize=1;strokeColor=none;fillColor=none;" vertex="1" parent="1">
          <mxGeometry x="730" y="800" width="60" height="30" as="geometry" />
        </mxCell>
        <mxCell id="eUXOg0ovLD5lxjKrLg9W-63" value="" style="shape=datastore;whiteSpace=wrap;html=1;" vertex="1" parent="1">
          <mxGeometry x="1020" y="730" width="60" height="60" as="geometry" />
        </mxCell>
        <mxCell id="eUXOg0ovLD5lxjKrLg9W-64" value="Комментарии" style="text;html=1;align=center;verticalAlign=middle;resizable=0;points=[];autosize=1;strokeColor=none;fillColor=none;" vertex="1" parent="1">
          <mxGeometry x="1000" y="794" width="100" height="30" as="geometry" />
        </mxCell>
        <mxCell id="eUXOg0ovLD5lxjKrLg9W-65" value="" style="shape=datastore;whiteSpace=wrap;html=1;" vertex="1" parent="1">
          <mxGeometry x="830" y="734" width="60" height="60" as="geometry" />
        </mxCell>
        <mxCell id="eUXOg0ovLD5lxjKrLg9W-66" value="Лайки к постам" style="text;html=1;align=center;verticalAlign=middle;resizable=0;points=[];autosize=1;strokeColor=none;fillColor=none;" vertex="1" parent="1">
          <mxGeometry x="805" y="800" width="110" height="30" as="geometry" />
        </mxCell>
        <mxCell id="eUXOg0ovLD5lxjKrLg9W-69" style="edgeStyle=orthogonalEdgeStyle;rounded=0;orthogonalLoop=1;jettySize=auto;html=1;entryX=0.5;entryY=0;entryDx=0;entryDy=0;" edge="1" parent="1" source="eUXOg0ovLD5lxjKrLg9W-46" target="eUXOg0ovLD5lxjKrLg9W-65">
          <mxGeometry relative="1" as="geometry" />
        </mxCell>
        <mxCell id="eUXOg0ovLD5lxjKrLg9W-70" style="edgeStyle=orthogonalEdgeStyle;rounded=0;orthogonalLoop=1;jettySize=auto;html=1;entryX=0.5;entryY=0;entryDx=0;entryDy=0;" edge="1" parent="1" source="eUXOg0ovLD5lxjKrLg9W-47" target="eUXOg0ovLD5lxjKrLg9W-63">
          <mxGeometry relative="1" as="geometry" />
        </mxCell>
        <mxCell id="eUXOg0ovLD5lxjKrLg9W-71" style="edgeStyle=orthogonalEdgeStyle;rounded=0;orthogonalLoop=1;jettySize=auto;html=1;entryX=0.5;entryY=0;entryDx=0;entryDy=0;" edge="1" parent="1" source="eUXOg0ovLD5lxjKrLg9W-44" target="eUXOg0ovLD5lxjKrLg9W-59">
          <mxGeometry relative="1" as="geometry" />
        </mxCell>
        <mxCell id="eUXOg0ovLD5lxjKrLg9W-72" style="edgeStyle=orthogonalEdgeStyle;rounded=0;orthogonalLoop=1;jettySize=auto;html=1;entryX=0.5;entryY=0;entryDx=0;entryDy=0;" edge="1" parent="1" source="eUXOg0ovLD5lxjKrLg9W-43" target="eUXOg0ovLD5lxjKrLg9W-59">
          <mxGeometry relative="1" as="geometry" />
        </mxCell>
        <mxCell id="eUXOg0ovLD5lxjKrLg9W-73" style="edgeStyle=orthogonalEdgeStyle;rounded=0;orthogonalLoop=1;jettySize=auto;html=1;entryX=0.5;entryY=0;entryDx=0;entryDy=0;" edge="1" parent="1" source="eUXOg0ovLD5lxjKrLg9W-45" target="eUXOg0ovLD5lxjKrLg9W-61">
          <mxGeometry relative="1" as="geometry">
            <Array as="points">
              <mxPoint x="790" y="490" />
              <mxPoint x="760" y="490" />
            </Array>
          </mxGeometry>
        </mxCell>
        <mxCell id="eUXOg0ovLD5lxjKrLg9W-75" value="" style="shape=datastore;whiteSpace=wrap;html=1;" vertex="1" parent="1">
          <mxGeometry x="20" y="730" width="60" height="60" as="geometry" />
        </mxCell>
        <mxCell id="eUXOg0ovLD5lxjKrLg9W-76" value="Сообщения" style="text;html=1;align=center;verticalAlign=middle;resizable=0;points=[];autosize=1;strokeColor=none;fillColor=none;" vertex="1" parent="1">
          <mxGeometry y="794" width="90" height="30" as="geometry" />
        </mxCell>
        <mxCell id="eUXOg0ovLD5lxjKrLg9W-80" style="edgeStyle=orthogonalEdgeStyle;rounded=0;orthogonalLoop=1;jettySize=auto;html=1;" edge="1" parent="1" source="eUXOg0ovLD5lxjKrLg9W-74" target="eUXOg0ovLD5lxjKrLg9W-75">
          <mxGeometry relative="1" as="geometry" />
        </mxCell>
      </root>
    </mxGraphModel>
  </diagram>
</mxfile>
